<svg width="22" height="22" viewBox="0 0 22 22" fill="none" xmlns="http://www.w3.org/2000/svg">
<path d="M10.5417 19.9375C5.36251 19.9375 1.14584 15.7208 1.14584 10.5417C1.14584 5.36249 5.36251 1.14583 10.5417 1.14583C15.7208 1.14583 19.9375 5.36249 19.9375 10.5417C19.9375 15.7208 15.7208 19.9375 10.5417 19.9375ZM10.5417 2.52083C6.11418 2.52083 2.52084 6.12333 2.52084 10.5417C2.52084 14.96 6.11418 18.5625 10.5417 18.5625C14.9692 18.5625 18.5625 14.96 18.5625 10.5417C18.5625 6.12333 14.9692 2.52083 10.5417 2.52083Z" fill="white"/>
<path d="M20.1666 20.8541C19.9924 20.8541 19.8182 20.7899 19.6807 20.6524L17.8474 18.8191C17.5816 18.5532 17.5816 18.1132 17.8474 17.8474C18.1132 17.5816 18.5532 17.5816 18.8191 17.8474L20.6524 19.6807C20.9182 19.9466 20.9182 20.3866 20.6524 20.6524C20.5149 20.7899 20.3407 20.8541 20.1666 20.8541Z" fill="white"/>
</svg>
