<svg width="20" height="20" viewBox="0 0 20 20" fill="none" xmlns="http://www.w3.org/2000/svg">
<mask id="mask0_17_1047" style="mask-type:luminance" maskUnits="userSpaceOnUse" x="0" y="0" width="20" height="20">
<path d="M20 0H0V20H20V0Z" fill="white"/>
</mask>
<g mask="url(#mask0_17_1047)">
<path d="M14.6837 8.95804C14.3253 8.95804 14.042 8.66637 14.042 8.31638C14.042 8.00805 13.7337 7.36638 13.217 6.80805C12.7087 6.26638 12.1503 5.94972 11.6837 5.94972C11.3253 5.94972 11.042 5.65805 11.042 5.30805C11.042 4.95805 11.3337 4.66638 11.6837 4.66638C12.517 4.66638 13.392 5.11638 14.1587 5.92472C14.8753 6.68305 15.3337 7.62472 15.3337 8.30805C15.3337 8.66637 15.042 8.95804 14.6837 8.95804Z" fill="#FF8000"/>
<path d="M17.6915 8.95835C17.3331 8.95835 17.0498 8.66669 17.0498 8.31669C17.0498 5.35835 14.6415 2.95835 11.6915 2.95835C11.3331 2.95835 11.0498 2.66669 11.0498 2.31669C11.0498 1.96669 11.3331 1.66669 11.6831 1.66669C15.3498 1.66669 18.3331 4.65002 18.3331 8.31669C18.3331 8.66669 18.0415 8.95835 17.6915 8.95835Z" fill="#FF8000"/>
<path d="M9.82533 11.8417L7.10033 14.5667C6.80033 14.3 6.50866 14.025 6.22533 13.7417C5.36699 12.875 4.59199 11.9667 3.90033 11.0167C3.21699 10.0667 2.66699 9.11669 2.26699 8.17502C1.86699 7.22502 1.66699 6.31669 1.66699 5.45002C1.66699 4.88335 1.76699 4.34169 1.96699 3.84169C2.16699 3.33335 2.48366 2.86669 2.92533 2.45002C3.45866 1.92502 4.04199 1.66669 4.65866 1.66669C4.89199 1.66669 5.12533 1.71669 5.33366 1.81669C5.55033 1.91669 5.74199 2.06669 5.89199 2.28335L7.82533 5.00835C7.97533 5.21669 8.08366 5.40835 8.15866 5.59169C8.23366 5.76669 8.27533 5.94169 8.27533 6.10002C8.27533 6.30002 8.21699 6.50002 8.10033 6.69169C7.99199 6.88335 7.83366 7.08335 7.63366 7.28335L7.00033 7.94169C6.90866 8.03335 6.86699 8.14169 6.86699 8.27502C6.86699 8.34169 6.87533 8.40002 6.89199 8.46669C6.91699 8.53335 6.94199 8.58335 6.95866 8.63335C7.10866 8.90835 7.36699 9.26669 7.73366 9.70002C8.10866 10.1334 8.50866 10.575 8.94199 11.0167C9.24199 11.3084 9.53366 11.5917 9.82533 11.8417Z" fill="#FF8000"/>
<path d="M18.3083 15.2742C18.3083 15.5076 18.2667 15.7492 18.1833 15.9826C18.1583 16.0492 18.1333 16.1159 18.1 16.1826C17.9583 16.4826 17.775 16.7659 17.5333 17.0326C17.125 17.4826 16.675 17.8076 16.1667 18.0159C16.1583 18.0159 16.15 18.0242 16.1417 18.0242C15.65 18.2242 15.1167 18.3326 14.5417 18.3326C13.6917 18.3326 12.7833 18.1326 11.825 17.7242C10.8667 17.3159 9.90833 16.7659 8.95833 16.0742C8.63333 15.8326 8.30833 15.5909 8 15.3326L10.725 12.6076C10.9583 12.7826 11.1667 12.9159 11.3417 13.0076C11.3833 13.0242 11.4333 13.0492 11.4917 13.0742C11.5583 13.0992 11.625 13.1076 11.7 13.1076C11.8417 13.1076 11.95 13.0576 12.0417 12.9659L12.675 12.3409C12.8833 12.1326 13.0833 11.9742 13.275 11.8742C13.4667 11.7576 13.6583 11.6992 13.8667 11.6992C14.025 11.6992 14.1917 11.7326 14.375 11.8076C14.5583 11.8826 14.75 11.9909 14.9583 12.1326L17.7167 14.0909C17.9333 14.2409 18.0833 14.4159 18.175 14.6242C18.2583 14.8326 18.3083 15.0409 18.3083 15.2742Z" fill="#FF8000"/>
</g>
</svg>
